<svg id="visual" viewBox="0 0 960 540" width="960" height="540" xmlns="http://www.w3.org/2000/svg" xmlns:xlink="http://www.w3.org/1999/xlink" version="1.1"><rect x="0" y="0" width="960" height="540" fill="#001220"></rect><defs><linearGradient id="grad1_0" x1="43.8%" y1="0%" x2="100%" y2="100%"><stop offset="14.444444444444446%" stop-color="#297ea6" stop-opacity="1"></stop><stop offset="85.55555555555554%" stop-color="#297ea6" stop-opacity="1"></stop></linearGradient></defs><defs><linearGradient id="grad1_1" x1="43.8%" y1="0%" x2="100%" y2="100%"><stop offset="14.444444444444446%" stop-color="#297ea6" stop-opacity="1"></stop><stop offset="85.55555555555554%" stop-color="#246a8e" stop-opacity="1"></stop></linearGradient></defs><defs><linearGradient id="grad1_2" x1="43.8%" y1="0%" x2="100%" y2="100%"><stop offset="14.444444444444446%" stop-color="#1e5776" stop-opacity="1"></stop><stop offset="85.55555555555554%" stop-color="#246a8e" stop-opacity="1"></stop></linearGradient></defs><defs><linearGradient id="grad1_3" x1="43.8%" y1="0%" x2="100%" y2="100%"><stop offset="14.444444444444446%" stop-color="#1e5776" stop-opacity="1"></stop><stop offset="85.55555555555554%" stop-color="#17445f" stop-opacity="1"></stop></linearGradient></defs><defs><linearGradient id="grad1_4" x1="43.8%" y1="0%" x2="100%" y2="100%"><stop offset="14.444444444444446%" stop-color="#103349" stop-opacity="1"></stop><stop offset="85.55555555555554%" stop-color="#17445f" stop-opacity="1"></stop></linearGradient></defs><defs><linearGradient id="grad1_5" x1="43.8%" y1="0%" x2="100%" y2="100%"><stop offset="14.444444444444446%" stop-color="#103349" stop-opacity="1"></stop><stop offset="85.55555555555554%" stop-color="#092234" stop-opacity="1"></stop></linearGradient></defs><defs><linearGradient id="grad1_6" x1="43.8%" y1="0%" x2="100%" y2="100%"><stop offset="14.444444444444446%" stop-color="#001220" stop-opacity="1"></stop><stop offset="85.55555555555554%" stop-color="#092234" stop-opacity="1"></stop></linearGradient></defs><defs><linearGradient id="grad2_0" x1="0%" y1="0%" x2="56.3%" y2="100%"><stop offset="14.444444444444446%" stop-color="#297ea6" stop-opacity="1"></stop><stop offset="85.55555555555554%" stop-color="#297ea6" stop-opacity="1"></stop></linearGradient></defs><defs><linearGradient id="grad2_1" x1="0%" y1="0%" x2="56.3%" y2="100%"><stop offset="14.444444444444446%" stop-color="#246a8e" stop-opacity="1"></stop><stop offset="85.55555555555554%" stop-color="#297ea6" stop-opacity="1"></stop></linearGradient></defs><defs><linearGradient id="grad2_2" x1="0%" y1="0%" x2="56.3%" y2="100%"><stop offset="14.444444444444446%" stop-color="#246a8e" stop-opacity="1"></stop><stop offset="85.55555555555554%" stop-color="#1e5776" stop-opacity="1"></stop></linearGradient></defs><defs><linearGradient id="grad2_3" x1="0%" y1="0%" x2="56.3%" y2="100%"><stop offset="14.444444444444446%" stop-color="#17445f" stop-opacity="1"></stop><stop offset="85.55555555555554%" stop-color="#1e5776" stop-opacity="1"></stop></linearGradient></defs><defs><linearGradient id="grad2_4" x1="0%" y1="0%" x2="56.3%" y2="100%"><stop offset="14.444444444444446%" stop-color="#17445f" stop-opacity="1"></stop><stop offset="85.55555555555554%" stop-color="#103349" stop-opacity="1"></stop></linearGradient></defs><defs><linearGradient id="grad2_5" x1="0%" y1="0%" x2="56.3%" y2="100%"><stop offset="14.444444444444446%" stop-color="#092234" stop-opacity="1"></stop><stop offset="85.55555555555554%" stop-color="#103349" stop-opacity="1"></stop></linearGradient></defs><defs><linearGradient id="grad2_6" x1="0%" y1="0%" x2="56.3%" y2="100%"><stop offset="14.444444444444446%" stop-color="#092234" stop-opacity="1"></stop><stop offset="85.55555555555554%" stop-color="#001220" stop-opacity="1"></stop></linearGradient></defs><g transform="translate(960, 0)"><path d="M0 243C-15.5 231.6 -31 220.3 -50.1 219.4C-69.1 218.4 -91.8 227.9 -105.4 218.9C-119.1 210 -123.7 182.6 -131.6 165C-139.4 147.4 -150.5 139.5 -163.4 130.3C-176.3 121.1 -191.1 110.5 -201.8 97.2C-212.5 83.9 -219 68 -225.2 51.4C-231.4 34.8 -237.2 17.4 -243 0L0 0Z" fill="#061a2a"></path><path d="M0 208.3C-13.3 198.6 -26.6 188.8 -42.9 188C-59.3 187.2 -78.7 195.3 -90.4 187.7C-102.1 180 -106 156.5 -112.8 141.4C-119.5 126.3 -129 119.6 -140.1 111.7C-151.1 103.8 -163.8 94.7 -173 83.3C-182.1 71.9 -187.7 58.3 -193 44.1C-198.3 29.8 -203.3 14.9 -208.3 0L0 0Z" fill="#0d2a3e"></path><path d="M0 173.6C-11.1 165.5 -22.1 157.4 -35.8 156.7C-49.4 156 -65.6 162.8 -75.3 156.4C-85.1 150 -88.4 130.4 -94 117.8C-99.6 105.3 -107.5 99.7 -116.7 93.1C-126 86.5 -136.5 78.9 -144.2 69.4C-151.8 59.9 -156.5 48.6 -160.9 36.7C-165.3 24.8 -169.4 12.4 -173.6 0L0 0Z" fill="#143b54"></path><path d="M0 138.9C-8.9 132.4 -17.7 125.9 -28.6 125.3C-39.5 124.8 -52.5 130.2 -60.2 125.1C-68 120 -70.7 104.3 -75.2 94.3C-79.7 84.2 -86 79.7 -93.4 74.5C-100.8 69.2 -109.2 63.1 -115.3 55.5C-121.4 48 -125.2 38.9 -128.7 29.4C-132.2 19.9 -135.5 9.9 -138.9 0L0 0Z" fill="#1b4d6b"></path><path d="M0 104.1C-6.6 99.3 -13.3 94.4 -21.5 94C-29.6 93.6 -39.3 97.7 -45.2 93.8C-51 90 -53 78.2 -56.4 70.7C-59.7 63.2 -64.5 59.8 -70 55.8C-75.6 51.9 -81.9 47.3 -86.5 41.7C-91.1 36 -93.9 29.2 -96.5 22C-99.2 14.9 -101.7 7.4 -104.1 0L0 0Z" fill="#216082"></path><path d="M0 69.4C-4.4 66.2 -8.9 62.9 -14.3 62.7C-19.8 62.4 -26.2 65.1 -30.1 62.6C-34 60 -35.3 52.2 -37.6 47.1C-39.8 42.1 -43 39.9 -46.7 37.2C-50.4 34.6 -54.6 31.6 -57.7 27.8C-60.7 24 -62.6 19.4 -64.3 14.7C-66.1 9.9 -67.8 5 -69.4 0L0 0Z" fill="#27749a"></path><path d="M0 34.7C-2.2 33.1 -4.4 31.5 -7.2 31.3C-9.9 31.2 -13.1 32.6 -15.1 31.3C-17 30 -17.7 26.1 -18.8 23.6C-19.9 21.1 -21.5 19.9 -23.3 18.6C-25.2 17.3 -27.3 15.8 -28.8 13.9C-30.4 12 -31.3 9.7 -32.2 7.3C-33.1 5 -33.9 2.5 -34.7 0L0 0Z" fill="#297ea6"></path></g><g transform="translate(0, 540)"><path d="M0 -243C16.9 -235.2 33.8 -227.4 50.5 -221.3C67.2 -215.2 83.8 -210.8 97.6 -202.7C111.4 -194.7 122.5 -183 140.3 -175.9C158.1 -168.8 182.7 -166.3 190 -151.5C197.2 -136.7 187.2 -109.5 189.2 -91.1C191.3 -72.7 205.4 -63.1 216.4 -49.4C227.4 -35.7 235.2 -17.8 243 0L0 0Z" fill="#061a2a"></path><path d="M0 -208.3C14.5 -201.6 29 -194.9 43.3 -189.7C57.6 -184.5 71.8 -180.7 83.7 -173.8C95.5 -166.9 105 -156.9 120.2 -150.8C135.5 -144.7 156.6 -142.6 162.8 -129.9C169.1 -117.2 160.4 -93.9 162.2 -78.1C163.9 -62.3 176.1 -54.1 185.5 -42.3C194.9 -30.6 201.6 -15.3 208.3 0L0 0Z" fill="#0d2a3e"></path><path d="M0 -173.6C12.1 -168 24.1 -162.4 36.1 -158.1C48 -153.7 59.9 -150.5 69.7 -144.8C79.6 -139 87.5 -130.7 100.2 -125.7C112.9 -120.6 130.5 -118.8 135.7 -108.2C140.9 -97.6 133.7 -78.2 135.1 -65.1C136.6 -51.9 146.7 -45.1 154.6 -35.3C162.4 -25.5 168 -12.7 173.6 0L0 0Z" fill="#143b54"></path><path d="M0 -138.9C9.7 -134.4 19.3 -130 28.9 -126.5C38.4 -123 47.9 -120.4 55.8 -115.8C63.7 -111.2 70 -104.6 80.2 -100.5C90.3 -96.5 104.4 -95.1 108.6 -86.6C112.7 -78.1 106.9 -62.6 108.1 -52.1C109.3 -41.6 117.4 -36.1 123.7 -28.2C130 -20.4 134.4 -10.2 138.9 0L0 0Z" fill="#1b4d6b"></path><path d="M0 -104.1C7.2 -100.8 14.5 -97.5 21.6 -94.8C28.8 -92.2 35.9 -90.3 41.8 -86.9C47.8 -83.4 52.5 -78.4 60.1 -75.4C67.8 -72.4 78.3 -71.3 81.4 -64.9C84.5 -58.6 80.2 -46.9 81.1 -39C82 -31.2 88 -27.1 92.8 -21.2C97.5 -15.3 100.8 -7.6 104.1 0L0 0Z" fill="#216082"></path><path d="M0 -69.4C4.8 -67.2 9.7 -65 14.4 -63.2C19.2 -61.5 23.9 -60.2 27.9 -57.9C31.8 -55.6 35 -52.3 40.1 -50.3C45.2 -48.2 52.2 -47.5 54.3 -43.3C56.4 -39.1 53.5 -31.3 54.1 -26C54.6 -20.8 58.7 -18 61.8 -14.1C65 -10.2 67.2 -5.1 69.4 0L0 0Z" fill="#27749a"></path><path d="M0 -34.7C2.4 -33.6 4.8 -32.5 7.2 -31.6C9.6 -30.7 12 -30.1 13.9 -29C15.9 -27.8 17.5 -26.1 20 -25.1C22.6 -24.1 26.1 -23.8 27.1 -21.6C28.2 -19.5 26.7 -15.6 27 -13C27.3 -10.4 29.3 -9 30.9 -7.1C32.5 -5.1 33.6 -2.5 34.7 0L0 0Z" fill="#297ea6"></path></g></svg>