<svg id="visual" viewBox="0 0 960 540" width="960" height="540" xmlns="http://www.w3.org/2000/svg" xmlns:xlink="http://www.w3.org/1999/xlink" version="1.1"><rect x="0" y="0" width="960" height="540" fill="#001220"></rect><path d="M745 540L745.8 533.5C746.7 527 748.3 514 749 501.2C749.7 488.3 749.3 475.7 742.8 462.8C736.3 450 723.7 437 715.3 424.2C707 411.3 703 398.7 699.2 385.8C695.3 373 691.7 360 700.2 347.2C708.7 334.3 729.3 321.7 727.8 308.8C726.3 296 702.7 283 700.3 270C698 257 717 244 717.8 231.2C718.7 218.3 701.3 205.7 692.7 192.8C684 180 684 167 692.8 154.2C701.7 141.3 719.3 128.7 731.3 115.8C743.3 103 749.7 90 754.5 77.2C759.3 64.3 762.7 51.7 755.8 38.8C749 26 732 13 723.5 6.5L715 0L960 0L960 6.5C960 13 960 26 960 38.8C960 51.7 960 64.3 960 77.2C960 90 960 103 960 115.8C960 128.7 960 141.3 960 154.2C960 167 960 180 960 192.8C960 205.7 960 218.3 960 231.2C960 244 960 257 960 270C960 283 960 296 960 308.8C960 321.7 960 334.3 960 347.2C960 360 960 373 960 385.8C960 398.7 960 411.3 960 424.2C960 437 960 450 960 462.8C960 475.7 960 488.3 960 501.2C960 514 960 527 960 533.5L960 540Z" fill="#297ea6"></path><path d="M778 540L780.8 533.5C783.7 527 789.3 514 786.8 501.2C784.3 488.3 773.7 475.7 774.8 462.8C776 450 789 437 796.5 424.2C804 411.3 806 398.7 797.5 385.8C789 373 770 360 762.8 347.2C755.7 334.3 760.3 321.7 766.3 308.8C772.3 296 779.7 283 776.5 270C773.3 257 759.7 244 763.5 231.2C767.3 218.3 788.7 205.7 791.8 192.8C795 180 780 167 777.7 154.2C775.3 141.3 785.7 128.7 781.7 115.8C777.7 103 759.3 90 750.3 77.2C741.3 64.3 741.7 51.7 753 38.8C764.3 26 786.7 13 797.8 6.5L809 0L960 0L960 6.5C960 13 960 26 960 38.8C960 51.7 960 64.3 960 77.2C960 90 960 103 960 115.8C960 128.7 960 141.3 960 154.2C960 167 960 180 960 192.8C960 205.7 960 218.3 960 231.2C960 244 960 257 960 270C960 283 960 296 960 308.8C960 321.7 960 334.3 960 347.2C960 360 960 373 960 385.8C960 398.7 960 411.3 960 424.2C960 437 960 450 960 462.8C960 475.7 960 488.3 960 501.2C960 514 960 527 960 533.5L960 540Z" fill="#1f5675"></path><path d="M850 540L843.7 533.5C837.3 527 824.7 514 824 501.2C823.3 488.3 834.7 475.7 833 462.8C831.3 450 816.7 437 816.2 424.2C815.7 411.3 829.3 398.7 835.5 385.8C841.7 373 840.3 360 838 347.2C835.7 334.3 832.3 321.7 829 308.8C825.7 296 822.3 283 818.8 270C815.3 257 811.7 244 811 231.2C810.3 218.3 812.7 205.7 815.5 192.8C818.3 180 821.7 167 827.3 154.2C833 141.3 841 128.7 846.8 115.8C852.7 103 856.3 90 856.2 77.2C856 64.3 852 51.7 851.3 38.8C850.7 26 853.3 13 854.7 6.5L856 0L960 0L960 6.5C960 13 960 26 960 38.8C960 51.7 960 64.3 960 77.2C960 90 960 103 960 115.8C960 128.7 960 141.3 960 154.2C960 167 960 180 960 192.8C960 205.7 960 218.3 960 231.2C960 244 960 257 960 270C960 283 960 296 960 308.8C960 321.7 960 334.3 960 347.2C960 360 960 373 960 385.8C960 398.7 960 411.3 960 424.2C960 437 960 450 960 462.8C960 475.7 960 488.3 960 501.2C960 514 960 527 960 533.5L960 540Z" fill="#123146"></path><path d="M898 540L897.2 533.5C896.3 527 894.7 514 894.5 501.2C894.3 488.3 895.7 475.7 896.8 462.8C898 450 899 437 899.8 424.2C900.7 411.3 901.3 398.7 898.2 385.8C895 373 888 360 888 347.2C888 334.3 895 321.7 896.8 308.8C898.7 296 895.3 283 890.2 270C885 257 878 244 874 231.2C870 218.3 869 205.7 870 192.8C871 180 874 167 873.5 154.2C873 141.3 869 128.7 873 115.8C877 103 889 90 888.3 77.2C887.7 64.3 874.3 51.7 868.2 38.8C862 26 863 13 863.5 6.5L864 0L960 0L960 6.5C960 13 960 26 960 38.8C960 51.7 960 64.3 960 77.2C960 90 960 103 960 115.8C960 128.7 960 141.3 960 154.2C960 167 960 180 960 192.8C960 205.7 960 218.3 960 231.2C960 244 960 257 960 270C960 283 960 296 960 308.8C960 321.7 960 334.3 960 347.2C960 360 960 373 960 385.8C960 398.7 960 411.3 960 424.2C960 437 960 450 960 462.8C960 475.7 960 488.3 960 501.2C960 514 960 527 960 533.5L960 540Z" fill="#00101c"></path></svg>