<svg id="visual" viewBox="0 0 960 540" width="960" height="540" xmlns="http://www.w3.org/2000/svg" xmlns:xlink="http://www.w3.org/1999/xlink" version="1.1"><g stroke-width="1" stroke-linejoin="bevel"><path d="M442 285L460 226L405 260Z" fill="#1d4e6b" stroke="#1d4e6b"></path><path d="M460 226L327 144L405 260Z" fill="#081a28" stroke="#081a28"></path><path d="M442 285L581 223L460 226Z" fill="#112e42" stroke="#112e42"></path><path d="M460 226L581 223L457 127Z" fill="#277297" stroke="#277297"></path><path d="M258 285L320 344L405 260Z" fill="#297ea6" stroke="#297ea6"></path><path d="M405 260L320 344L442 285Z" fill="#19435d" stroke="#19435d"></path><path d="M442 285L479 405L581 223Z" fill="#19435d" stroke="#19435d"></path><path d="M457 127L327 144L460 226Z" fill="#246688" stroke="#246688"></path><path d="M405 443L479 405L442 285Z" fill="#0c2435" stroke="#0c2435"></path><path d="M327 144L258 285L405 260Z" fill="#081a28" stroke="#081a28"></path><path d="M581 223L601 154L457 127Z" fill="#277297" stroke="#277297"></path><path d="M285 457L405 443L320 344Z" fill="#1d4e6b" stroke="#1d4e6b"></path><path d="M320 344L405 443L442 285Z" fill="#277297" stroke="#277297"></path><path d="M611 409L637 368L479 405Z" fill="#246688" stroke="#246688"></path><path d="M479 405L637 368L581 223Z" fill="#297ea6" stroke="#297ea6"></path><path d="M581 223L747 237L601 154Z" fill="#246688" stroke="#246688"></path><path d="M587 540L611 409L479 405Z" fill="#0c2435" stroke="#0c2435"></path><path d="M327 144L192 208L258 285Z" fill="#00101c" stroke="#00101c"></path><path d="M337 0L231 109L327 144Z" fill="#277297" stroke="#277297"></path><path d="M327 144L231 109L192 208Z" fill="#0c2435" stroke="#0c2435"></path><path d="M554 0L459 0L457 127Z" fill="#297ea6" stroke="#297ea6"></path><path d="M457 127L337 0L327 144Z" fill="#246688" stroke="#246688"></path><path d="M158 312L285 457L320 344Z" fill="#19435d" stroke="#19435d"></path><path d="M158 312L320 344L258 285Z" fill="#1d4e6b" stroke="#1d4e6b"></path><path d="M459 0L337 0L457 127Z" fill="#205a7a" stroke="#205a7a"></path><path d="M601 154L554 0L457 127Z" fill="#277297" stroke="#277297"></path><path d="M674 419L712 307L637 368Z" fill="#277297" stroke="#277297"></path><path d="M637 368L712 307L581 223Z" fill="#00101c" stroke="#00101c"></path><path d="M601 154L691 0L554 0Z" fill="#246688" stroke="#246688"></path><path d="M192 208L158 312L258 285Z" fill="#277297" stroke="#277297"></path><path d="M321 540L434 540L405 443Z" fill="#19435d" stroke="#19435d"></path><path d="M405 443L434 540L479 405Z" fill="#081a28" stroke="#081a28"></path><path d="M587 540L674 419L611 409Z" fill="#081a28" stroke="#081a28"></path><path d="M611 409L674 419L637 368Z" fill="#081a28" stroke="#081a28"></path><path d="M855 333L747 237L712 307Z" fill="#205a7a" stroke="#205a7a"></path><path d="M712 307L747 237L581 223Z" fill="#205a7a" stroke="#205a7a"></path><path d="M285 457L321 540L405 443Z" fill="#1d4e6b" stroke="#1d4e6b"></path><path d="M282 540L321 540L285 457Z" fill="#081a28" stroke="#081a28"></path><path d="M434 540L587 540L479 405Z" fill="#15384f" stroke="#15384f"></path><path d="M118 540L282 540L285 457Z" fill="#0c2435" stroke="#0c2435"></path><path d="M192 208L96 252L158 312Z" fill="#00101c" stroke="#00101c"></path><path d="M158 312L114 394L285 457Z" fill="#081a28" stroke="#081a28"></path><path d="M79 125L96 252L192 208Z" fill="#00101c" stroke="#00101c"></path><path d="M747 237L750 112L601 154Z" fill="#246688" stroke="#246688"></path><path d="M337 0L197 0L231 109Z" fill="#15384f" stroke="#15384f"></path><path d="M231 109L79 125L192 208Z" fill="#297ea6" stroke="#297ea6"></path><path d="M96 252L114 394L158 312Z" fill="#00101c" stroke="#00101c"></path><path d="M750 112L691 0L601 154Z" fill="#297ea6" stroke="#297ea6"></path><path d="M197 0L79 125L231 109Z" fill="#00101c" stroke="#00101c"></path><path d="M0 413L118 540L114 394Z" fill="#1d4e6b" stroke="#1d4e6b"></path><path d="M587 540L743 540L674 419Z" fill="#19435d" stroke="#19435d"></path><path d="M674 419L855 333L712 307Z" fill="#1d4e6b" stroke="#1d4e6b"></path><path d="M747 237L871 236L750 112Z" fill="#112e42" stroke="#112e42"></path><path d="M197 0L98 0L79 125Z" fill="#297ea6" stroke="#297ea6"></path><path d="M886 456L855 333L674 419Z" fill="#0c2435" stroke="#0c2435"></path><path d="M0 284L114 394L96 252Z" fill="#205a7a" stroke="#205a7a"></path><path d="M114 394L118 540L285 457Z" fill="#277297" stroke="#277297"></path><path d="M855 333L871 236L747 237Z" fill="#297ea6" stroke="#297ea6"></path><path d="M750 112L828 0L691 0Z" fill="#112e42" stroke="#112e42"></path><path d="M0 95L0 236L79 125Z" fill="#081a28" stroke="#081a28"></path><path d="M79 125L0 236L96 252Z" fill="#246688" stroke="#246688"></path><path d="M0 236L0 284L96 252Z" fill="#0c2435" stroke="#0c2435"></path><path d="M885 123L828 0L750 112Z" fill="#15384f" stroke="#15384f"></path><path d="M98 0L0 95L79 125Z" fill="#1d4e6b" stroke="#1d4e6b"></path><path d="M871 236L885 123L750 112Z" fill="#19435d" stroke="#19435d"></path><path d="M0 284L0 413L114 394Z" fill="#112e42" stroke="#112e42"></path><path d="M743 540L886 456L674 419Z" fill="#15384f" stroke="#15384f"></path><path d="M855 333L960 277L871 236Z" fill="#246688" stroke="#246688"></path><path d="M871 236L960 205L885 123Z" fill="#15384f" stroke="#15384f"></path><path d="M743 540L847 540L886 456Z" fill="#15384f" stroke="#15384f"></path><path d="M98 0L0 0L0 95Z" fill="#19435d" stroke="#19435d"></path><path d="M960 422L960 277L855 333Z" fill="#277297" stroke="#277297"></path><path d="M885 123L960 85L828 0Z" fill="#00101c" stroke="#00101c"></path><path d="M0 413L0 540L118 540Z" fill="#15384f" stroke="#15384f"></path><path d="M960 277L960 205L871 236Z" fill="#0c2435" stroke="#0c2435"></path><path d="M960 205L960 85L885 123Z" fill="#1d4e6b" stroke="#1d4e6b"></path><path d="M886 456L960 422L855 333Z" fill="#1d4e6b" stroke="#1d4e6b"></path><path d="M960 540L960 422L886 456Z" fill="#112e42" stroke="#112e42"></path><path d="M960 85L960 0L828 0Z" fill="#1d4e6b" stroke="#1d4e6b"></path><path d="M847 540L960 540L886 456Z" fill="#081a28" stroke="#081a28"></path></g></svg>